# xmcd
#
# Track frame offsets:
#	150
#	17163
#	32356
#	41758
#	57154
#	74036
#	91552
#	106949
#	123142
#	135189
#	147543
#	161799
#
# Disc length: 2421 seconds
#
# Revision: 0
# Processed by: cddbd v1.5.2PL0 Copyright (c) Steve Scherf et al.
# Submitted via: EasyCDDAExtractor 10.2.0.1
#
DISCID=9b09730c
DTITLE=Various Artist - HMG Bluegrass Vol. 9
DYEAR=2000
DGENRE=Gospel
TTITLE0=Jesse McReynolds - America On Bended Knees
TTITLE1=Lawrence Bishop - Mother's Last Words
TTITLE2=James Monroe - Kentucky Sweetheart
TTITLE3=Travis Wetzel - If Tears Could Walk On Water
TTITLE4=Steve Lutke - House Of Cards
TTITLE5=Mountain Heir - Heaven Will Be Our New Home
TTITLE6=Barna BLU_GRACE - Lead Me On
TTITLE7=The Weathers Family - He Gives Me Strength
TTITLE8=Southern Dogwood - Heaven Started Yesterday
TTITLE9=Gail Bliss - Like A River Glorious
TTITLE10=Ron Thompson - God's Country Of Love
TTITLE11=Michael Gracy - Seat Of An Ole John Deere Tractor
EXTD=
EXTT0=
EXTT1=
EXTT2=
EXTT3=
EXTT4=
EXTT5=
EXTT6=
EXTT7=
EXTT8=
EXTT9=
EXTT10=
EXTT11=
PLAYORDER=
